<?xml version="1.0" standalone="no"?>
<!DOCTYPE svg PUBLIC "-//W3C//DTD SVG 1.1//EN" "http://www.w3.org/Graphics/SVG/1.1/DTD/svg11.dtd">
<svg xmlns="http://www.w3.org/2000/svg" fill="none" viewBox="0 0 152 114" height="114" width="152">
<g clip-path="url(#clip0_22_410)">
<path fill="#8B1527" d="M78.4234 86.5505C75.4967 86.5505 73.1642 84.4812 71.4968 80.4059C70.4902 77.9516 69.59 74.5465 68.743 69.9912C67.2397 61.913 66.1001 51.2991 65.0003 41.0338C64.1134 32.77 63.2798 24.9681 62.2909 18.6332C61.9006 16.1246 61.5281 14.1685 61.1911 12.6425C60.9871 13.7247 60.7743 15.0288 60.5614 16.5956C59.8564 21.7893 59.3375 28.4004 58.8364 34.7896C58.2023 42.8587 57.5504 51.204 56.4773 57.5343C55.8609 61.1704 55.1425 63.9099 54.2867 65.9068C52.4286 70.2402 49.7635 71.1504 47.8567 71.1504C44.4865 71.1504 41.6972 68.6327 39.5687 63.6609C39.174 62.7416 38.837 61.8224 38.5665 60.9983H3.94224C1.76492 60.9983 0 59.1961 0 56.9728C0 54.7495 1.76492 52.9473 3.94224 52.9473H41.511C43.338 52.9473 44.93 54.2333 45.3468 56.0491C45.8213 58.0822 46.6461 60.301 47.4133 61.75C47.8833 60.3372 48.4953 57.883 49.0895 53.6809C49.8877 48.0524 50.442 40.9795 50.9786 34.142C51.6038 26.1816 52.1936 18.6604 53.1559 12.801C53.7102 9.43207 54.3443 6.90085 55.1026 5.05338C56.8187 0.869392 59.3641 -0.00906372 61.1956 -0.00906372C63.8917 -0.00906372 65.9803 1.89275 67.4038 5.64656C68.202 7.74308 68.9248 10.6637 69.6166 14.576C70.8449 21.5222 71.8161 30.5693 72.8404 40.1508C73.8027 49.1346 74.7961 58.4218 76.0244 65.8253C77.1818 72.8212 78.2328 76.1177 78.9068 77.6528C79.4389 76.8105 80.2017 75.2121 81.0664 72.2371C82.2371 68.2071 83.1639 63.1492 84.0596 58.2543C84.9598 53.3458 85.8112 48.7135 86.8888 45.1137C87.5806 42.8089 89.412 36.6914 94.4274 36.6914C96.7156 36.6914 99.8507 37.7962 101.811 43.0534C102.777 45.6525 103.367 48.8901 103.939 52.0191C104.401 54.5503 105.225 59.0829 106.112 60.55C107.256 60.4278 107.66 59.8391 108.64 58.1954C109.669 56.4702 111.394 53.5858 115.11 53.5858H148.058C150.235 53.5858 152 55.388 152 57.6113C152 59.8346 150.235 61.6368 148.058 61.6368H115.833C115.682 61.8677 115.513 62.153 115.371 62.3885C114.068 64.5665 111.646 68.6282 105.553 68.6282C103.296 68.6282 100.201 67.5369 98.2765 62.3296C97.332 59.7757 96.7511 56.5789 96.1879 53.4907C95.8464 51.6251 95.3143 48.6864 94.6935 46.6396C94.4673 47.3143 94.219 48.1656 93.9441 49.2478C93.1946 52.2092 92.525 55.8634 91.8155 59.735C90.7512 65.5264 89.6515 71.5126 88.095 76.2536C87.2569 78.7984 84.7159 86.5415 78.4279 86.5415L78.4234 86.5505Z"/>
</g>
<defs>
<clipPath id="clip0_22_410">
<rect fill="white" height="114" width="152"/>
</clipPath>
</defs>
</svg>