<?xml version="1.0" standalone="no"?>
<!DOCTYPE svg PUBLIC "-//W3C//DTD SVG 1.1//EN" "http://www.w3.org/Graphics/SVG/1.1/DTD/svg11.dtd">
<svg xmlns="http://www.w3.org/2000/svg" fill="none" viewBox="0 0 190 30" height="30" width="190">
<path fill="#8B1527" d="M22.5899 28.3563C22.2445 28.3563 21.9086 28.1852 21.7058 27.8747C21.3921 27.3867 21.5315 26.7371 22.0195 26.4234C22.1272 26.3537 22.2413 26.2808 22.3617 26.2048C24.6432 24.7377 29.3963 21.683 32.3369 17.5193C32.6727 17.044 33.3255 16.9331 33.8008 17.269C34.2761 17.6049 34.387 18.2576 34.0511 18.7329C30.8729 23.2293 25.8917 26.4329 23.4961 27.9729C23.3789 28.049 23.2648 28.1219 23.1571 28.1916C22.9796 28.3056 22.7831 28.3595 22.5899 28.3595V28.3563Z"/>
<path fill="#8B1527" d="M35.8193 13.1148C35.7622 13.1148 35.702 13.1116 35.645 13.0989C35.0715 13.0039 34.688 12.462 34.7831 11.8885C34.8813 11.2928 34.932 10.6907 34.932 10.0918C34.932 6.58719 32.0802 3.73217 28.5724 3.73217C26.142 3.73217 23.9049 5.09789 21.728 7.91172C21.3731 8.37119 20.714 8.45357 20.2545 8.09868C19.795 7.74378 19.7126 7.08469 20.0675 6.62522C21.1512 5.22781 22.235 4.15678 23.3884 3.35193C25.0203 2.21118 26.7662 1.63131 28.5756 1.63131C33.2399 1.63131 37.0361 5.42744 37.0361 10.0918C37.0361 10.8048 36.9759 11.5241 36.8586 12.2339C36.7731 12.7472 36.3263 13.1116 35.8225 13.1116L35.8193 13.1148Z"/>
<path fill="#8B1527" d="M19.5194 29.8773C19.3356 29.8773 19.1486 29.8298 18.9807 29.7284C18.8539 29.6524 18.7177 29.57 18.5751 29.4844C15.5204 27.6561 9.16396 23.8504 5.30762 18.2861C4.97807 17.8108 5.09531 17.1549 5.57379 16.8253C6.05227 16.4958 6.70503 16.613 7.03457 17.0915C10.6311 22.2819 16.7245 25.9291 19.6524 27.6846C19.795 27.7701 19.9345 27.8525 20.0612 27.9317C20.5587 28.2296 20.7203 28.876 20.4193 29.3735C20.2228 29.6999 19.8743 29.8837 19.5194 29.8837V29.8773Z"/>
<path fill="#8B1527" d="M4.17004 13.1528C3.66622 13.1528 3.22259 12.7916 3.13704 12.2782C3.01346 11.5558 2.95008 10.8206 2.95008 10.095C2.95008 5.43061 6.74622 1.63448 11.4106 1.63448C11.9905 1.63448 12.4626 2.10345 12.4626 2.68649C12.4626 3.26954 11.9936 3.73851 11.4106 3.73851C7.90597 3.73851 5.05095 6.59036 5.05095 10.0981C5.05095 10.7065 5.10482 11.3213 5.20622 11.9297C5.30445 12.5 4.91786 13.0451 4.34749 13.1433C4.28729 13.1528 4.22708 13.1591 4.17004 13.1591V13.1528Z"/>
<path fill="black" d="M20.8977 22.7126C20.1182 22.7126 19.4972 22.174 19.0504 21.1093C18.7842 20.4692 18.5434 19.5788 18.3184 18.3905C17.9191 16.2833 17.6149 13.5138 17.3203 10.8331C17.0858 8.67835 16.8608 6.64086 16.5978 4.98679C16.4932 4.33403 16.395 3.8207 16.3031 3.42461C16.2492 3.70662 16.1922 4.04884 16.1352 4.45444C15.9482 5.81066 15.8088 7.53444 15.6757 9.20119C15.5077 11.3084 15.3335 13.4853 15.0451 15.1362C14.8803 16.0868 14.6902 16.7998 14.4621 17.3195C13.9677 18.4507 13.258 18.6884 12.7478 18.6884C11.8479 18.6884 11.1064 18.0293 10.5392 16.7333C10.4346 16.4924 10.3459 16.2548 10.273 16.0393H1.05202C0.47214 16.0393 0 15.5703 0 14.9873C0 14.4042 0.468971 13.9353 1.05202 13.9353H11.0652C11.5532 13.9353 11.9746 14.2712 12.0887 14.7433C12.2154 15.2725 12.4341 15.8524 12.64 16.2326C12.7668 15.865 12.9284 15.2249 13.0868 14.1286C13.2991 12.6583 13.4481 10.8141 13.5907 9.03008C13.7554 6.9514 13.9139 4.98996 14.1705 3.45946C14.3163 2.58172 14.4874 1.91946 14.6902 1.43781C15.1465 0.347772 15.8246 0.116455 16.3126 0.116455C17.0319 0.116455 17.5864 0.613945 17.9667 1.59308C18.179 2.14127 18.3723 2.90177 18.5561 3.9221C18.8824 5.73461 19.1423 8.09531 19.4148 10.5954C19.6715 12.9403 19.9376 15.3644 20.264 17.2941C20.5714 19.1193 20.8534 19.9812 21.0308 20.3805C21.1734 20.1618 21.3762 19.7435 21.6075 18.9672C21.9181 17.9152 22.1652 16.5938 22.4061 15.3168C22.6469 14.0367 22.8719 12.8262 23.1602 11.8883C23.344 11.2862 23.832 9.68918 25.1692 9.68918C25.7776 9.68918 26.6141 9.97753 27.137 11.3496C27.3936 12.0277 27.5521 12.8737 27.7042 13.6881C27.8278 14.3472 28.0464 15.5323 28.2841 15.9157C28.5882 15.884 28.696 15.7319 28.959 15.301C29.2347 14.851 29.6941 14.0969 30.6828 14.0969H39.4633C40.0432 14.0969 40.5153 14.5658 40.5153 15.1489C40.5153 15.7319 40.0464 16.2009 39.4633 16.2009H30.8761C30.8349 16.2611 30.7905 16.3372 30.7525 16.3974C30.4039 16.9677 29.7607 18.0261 28.1351 18.0261C27.5331 18.0261 26.7092 17.7409 26.1959 16.3815C25.9455 15.7161 25.7903 14.8827 25.6382 14.0747C25.5463 13.5867 25.4037 12.8199 25.2389 12.2875C25.1787 12.4618 25.1122 12.6868 25.0393 12.9688C24.8396 13.742 24.6622 14.6958 24.4721 15.7066C24.1901 17.2181 23.8954 18.7803 23.4803 20.0161C23.2584 20.6815 22.5803 22.7 20.9041 22.7L20.8977 22.7126Z"/>
<path fill="black" d="M50.0247 9.14436V9.39152H48.4086V15.1554H53.4881V9.39152H51.8721V9.14436H57.655V9.39152H56.0389V21.4137H57.655V21.6608H51.8721V21.4137H53.4881V15.4026H48.4086V21.4137H50.0247V21.6608H44.2418V21.4137H45.8578V9.39152H44.2418V9.14436H50.0247Z"/>
<path fill="black" d="M59.3059 21.4137L64.5438 8.6532H65.0191L70.5549 21.4137H72.0663V21.6608H66.1598V21.4137H67.7949L65.7574 16.7018H61.5398L59.5879 21.4137H61.1533V21.6608H57.8324V21.4137H59.3091H59.3059ZM61.6254 16.4578H65.6687L63.5932 11.6603L61.6254 16.4578Z"/>
<path fill="black" d="M72.2248 9.39152V9.14436H74.8802C75.3713 9.14436 75.8593 9.13485 76.3378 9.11901C76.8194 9.09999 77.3043 9.09366 77.7954 9.09366C78.2517 9.09366 78.7365 9.14119 79.2467 9.23308C79.7568 9.32814 80.2226 9.48658 80.6441 9.7179C81.0655 9.94604 81.4141 10.2534 81.6898 10.64C81.9654 11.0266 82.1017 11.5114 82.1017 12.0976C82.1017 12.5666 81.9971 12.969 81.7848 13.3017C81.5725 13.6344 81.3 13.907 80.9673 14.1193C80.6346 14.3316 80.2607 14.49 79.8519 14.6009C79.4431 14.7118 79.0375 14.7847 78.6383 14.8195V14.9083C79.2118 15.0128 79.7252 15.1206 80.1751 15.2251C80.6251 15.3297 81.0148 15.4881 81.3444 15.7005C81.6708 15.9128 81.9338 16.2043 82.1271 16.5782C82.3203 16.9521 82.4408 17.4559 82.4883 18.0897C82.5453 18.828 82.5929 19.4205 82.6277 19.8642C82.6626 20.3109 82.7133 20.6563 82.7766 20.9003C82.84 21.1475 82.9287 21.3091 83.0396 21.3915C83.1506 21.4739 83.3122 21.5151 83.5245 21.5151C83.7589 21.5151 83.9522 21.4485 84.1043 21.3123C84.2564 21.1792 84.3927 21.0524 84.5099 20.9352L84.6842 21.0936C84.567 21.2109 84.4529 21.3186 84.342 21.42C84.2311 21.5182 84.1012 21.6038 83.9554 21.6735C83.8097 21.7432 83.629 21.8003 83.4199 21.8414C83.2076 21.8826 82.9446 21.9016 82.6277 21.9016C81.9845 21.9016 81.4806 21.8003 81.1162 21.5943C80.7518 21.3883 80.4825 21.1348 80.3082 20.8306C80.1339 20.5264 80.023 20.1937 79.9818 19.8388C79.9406 19.4807 79.9153 19.1449 79.9026 18.828C79.8804 18.3463 79.8456 17.8805 79.8075 17.4306C79.7664 16.9806 79.6681 16.5782 79.516 16.2265C79.3639 15.8747 79.1358 15.5927 78.8316 15.3836C78.5274 15.1713 78.0996 15.0667 77.5482 15.0667H76.3885V21.4105H78.0045V21.6577H72.2216V21.4105H73.8377V9.39152H72.2216H72.2248ZM77.111 14.8227C77.637 14.8227 78.0552 14.753 78.3594 14.6104C78.6636 14.471 78.8918 14.2809 79.0439 14.04C79.196 13.7992 79.2942 13.5267 79.3354 13.2225C79.3766 12.9183 79.3956 12.6078 79.3956 12.2909C79.3956 11.7744 79.3607 11.3339 79.291 10.9632C79.2213 10.5956 79.1041 10.2883 78.9393 10.0506C78.7745 9.80979 78.5496 9.63234 78.2612 9.5151C77.9729 9.39785 77.6085 9.34082 77.1617 9.34082C77.0317 9.34082 76.905 9.34715 76.7751 9.35983C76.6451 9.37251 76.5184 9.38201 76.3885 9.39469V14.8259H77.1078L77.111 14.8227Z"/>
<path fill="black" d="M88.5849 9.39152C88.1508 9.39152 87.7642 9.43588 87.4252 9.5246C87.0861 9.61333 86.7819 9.76543 86.5126 9.9809C86.2432 10.1995 86.0024 10.5006 85.7933 10.8872C85.581 11.2737 85.3877 11.7649 85.2134 12.3638H84.9853V9.14752H96.0061V12.3638H95.7779C95.6037 11.7649 95.4104 11.2737 95.1981 10.8872C94.9857 10.5006 94.7481 10.1995 94.4788 9.9809C94.2094 9.76543 93.9052 9.61333 93.5662 9.5246C93.2271 9.43588 92.8405 9.39152 92.4064 9.39152H91.7727V21.4137H93.3887V21.6608H87.6058V21.4137H89.2218V9.39152H88.5849Z"/>
<path fill="black" d="M106.691 9.14436L109.733 17.8964H109.768L112.861 9.14436H117.256V9.39152H115.64V21.4137H117.256V21.6608H111.492V21.4137H113.092V9.39152H113.057L108.732 21.6608H108.45L104.109 9.39152H104.074V21.4137H105.69V21.6608H102.176V21.4137H103.792V9.39152H102.176V9.14436H106.694H106.691Z"/>
<path fill="black" d="M129.012 9.14436V12.1483H128.783C128.723 11.9487 128.625 11.6952 128.486 11.3846C128.346 11.0741 128.15 10.7731 127.896 10.4784C127.643 10.1869 127.319 9.9302 126.92 9.71473C126.521 9.49925 126.036 9.38835 125.463 9.38835H122.668V14.8195H123.653C124.087 14.8195 124.452 14.7593 124.753 14.6358C125.051 14.5122 125.301 14.3379 125.501 14.1098C125.7 13.8816 125.865 13.6059 125.992 13.2827C126.122 12.9595 126.226 12.6014 126.309 12.2022H126.537V17.6682H126.309C126.226 17.3292 126.131 16.9996 126.017 16.6828C125.906 16.3659 125.757 16.087 125.57 15.8494C125.383 15.6086 125.152 15.4184 124.876 15.279C124.601 15.1396 124.258 15.0667 123.85 15.0667H122.671V21.4105H125.554C126.093 21.4105 126.581 21.3186 127.012 21.138C127.446 20.9574 127.83 20.7007 128.162 20.3743C128.495 20.0479 128.774 19.6614 128.996 19.2241C129.217 18.7836 129.389 18.3146 129.506 17.8077H129.734V21.6577H118.504V21.4105H120.12V9.39152H118.504V9.14436H129.015H129.012Z"/>
<path fill="black" d="M131.103 9.39152V9.14436H132.719C133.318 9.14436 133.914 9.13485 134.512 9.11901C135.111 9.09999 135.707 9.09366 136.306 9.09366C136.832 9.09366 137.39 9.12851 137.976 9.19823C138.562 9.26794 139.142 9.39469 139.715 9.5753C140.289 9.75592 140.834 9.99991 141.351 10.3041C141.867 10.6083 142.323 10.9949 142.723 11.4639C143.122 11.9328 143.439 12.4905 143.673 13.1338C143.908 13.777 144.025 14.5344 144.025 15.4026C144.025 16.2708 143.908 17.0091 143.673 17.6524C143.439 18.2956 143.125 18.8533 142.732 19.3223C142.339 19.7913 141.892 20.1779 141.389 20.4821C140.885 20.7863 140.362 21.0302 139.817 21.2109C139.272 21.3915 138.733 21.5182 138.201 21.5879C137.668 21.6577 137.174 21.6925 136.715 21.6925C136.046 21.6925 135.381 21.6862 134.718 21.6735C134.056 21.6608 133.391 21.6545 132.722 21.6545H131.106V21.4073H132.722V9.39152H131.103ZM136.198 21.4675C136.959 21.4675 137.611 21.3756 138.15 21.195C138.689 21.0144 139.142 20.7672 139.513 20.4567C139.88 20.1462 140.175 19.7913 140.39 19.392C140.606 18.9928 140.771 18.5745 140.882 18.134C140.992 17.6936 141.065 17.2563 141.1 16.8158C141.135 16.3754 141.154 15.9635 141.154 15.5769C141.154 14.6263 141.094 13.7707 140.98 13.0007C140.863 12.2339 140.631 11.5779 140.286 11.0329C139.94 10.4879 139.452 10.0696 138.828 9.77493C138.201 9.48341 137.377 9.33448 136.36 9.33448C136.125 9.33448 135.913 9.33448 135.726 9.34399C135.539 9.35032 135.387 9.363 135.27 9.38835V21.4105C135.609 21.4454 135.919 21.4644 136.201 21.4644L136.198 21.4675Z"/>
<path fill="black" d="M151.332 9.14436V9.39152H149.716V21.4137H151.332V21.6608H145.549V21.4137H147.165V9.39152H145.549V9.14436H151.332Z"/>
<path fill="black" d="M163.335 12.7314C163.205 12.3448 163.05 11.9392 162.869 11.5114C162.689 11.0836 162.454 10.6907 162.166 10.3326C161.878 9.97456 161.523 9.68304 161.095 9.45489C160.667 9.22674 160.138 9.11267 159.504 9.11267C158.649 9.11267 157.974 9.27111 157.483 9.58798C156.991 9.90485 156.617 10.3453 156.367 10.9062C156.114 11.467 155.955 12.1388 155.882 12.9183C155.813 13.6978 155.778 14.5502 155.778 15.4755C155.778 16.6954 155.847 17.7031 155.99 18.4984C156.129 19.297 156.351 19.9275 156.649 20.3965C156.947 20.8655 157.334 21.195 157.809 21.382C158.284 21.5689 158.848 21.664 159.504 21.664C160.03 21.664 160.509 21.5594 160.936 21.3471C161.364 21.1348 161.741 20.8591 162.071 20.5137C162.397 20.1684 162.673 19.7723 162.898 19.3286C163.12 18.885 163.284 18.4192 163.389 17.9407H163.671V21.6672H163.389C163.329 21.5277 163.259 21.4295 163.177 21.3756C163.094 21.3218 162.971 21.2964 162.806 21.2964C162.667 21.2964 162.483 21.3281 162.261 21.3915C162.039 21.4549 161.782 21.5277 161.497 21.6038C161.209 21.6798 160.895 21.7495 160.556 21.8161C160.217 21.8795 159.859 21.9112 159.485 21.9112C158.63 21.9112 157.803 21.7432 157.007 21.4105C156.212 21.0778 155.512 20.6183 154.906 20.0384C154.301 19.4586 153.819 18.7773 153.455 17.9914C153.091 17.2056 152.91 16.3564 152.91 15.4438C152.91 14.4488 153.113 13.5457 153.515 12.7377C153.921 11.9297 154.437 11.2389 155.071 10.6653C155.705 10.0918 156.408 9.64818 157.188 9.33765C157.967 9.02711 158.731 8.87185 159.482 8.87185C159.856 8.87185 160.204 8.9067 160.528 8.97641C160.851 9.04613 161.149 9.11901 161.424 9.19506C161.7 9.27111 161.947 9.34399 162.172 9.4137C162.394 9.48341 162.581 9.51827 162.733 9.51827C162.898 9.51827 163.021 9.49925 163.101 9.45806C163.183 9.41687 163.24 9.31547 163.275 9.15069H163.557V12.7377H163.329L163.335 12.7314Z"/>
<path fill="black" d="M165.743 21.4137L170.981 8.6532H171.457L176.992 21.4137H178.504V21.6608H172.597V21.4137H174.232L172.195 16.7018H167.977L166.025 21.4137H167.591V21.6608H164.27V21.4137H165.747H165.743ZM168.063 16.4578H172.106L170.031 11.6603L168.063 16.4578Z"/>
<path fill="black" d="M184.639 9.14436V9.39152H183.022V21.4137H185.922C186.308 21.4137 186.698 21.3503 187.091 21.2204C187.484 21.0905 187.852 20.8782 188.197 20.5803C188.542 20.2824 188.853 19.8958 189.129 19.4205C189.404 18.9452 189.617 18.3685 189.769 17.6904H189.997V21.664H178.852V21.4168H180.468V9.39152H178.852V9.14436H184.639Z"/>
</svg>